<svg width="43" height="25" viewBox="0 0 43 25" fill="none" xmlns="http://www.w3.org/2000/svg">
<path d="M0.540223 18.7012L0 18.331C0.0944783 18.117 0.163763 17.858 0.306692 17.6545C0.918621 16.7814 1.62696 16.025 2.767 16.0001C2.9608 15.9961 3.2079 16.1498 3.34841 16.3064C3.59599 16.5833 3.78107 16.9201 4.01751 17.2688L3.40897 17.3686C4.23554 17.198 4.76316 17.8675 5.48023 18.1135L4.22052 18.6513L4.60279 18.8604L3.14928 20.0967L3.15509 20.1102C2.96565 20.0952 2.7733 20.0967 2.58677 20.0603C2.00536 19.9535 1.42638 19.8338 0.846427 19.719C0.744682 19.3794 0.642615 19.0402 0.540223 18.7012ZM1.78104 17.9304L1.69867 18.0327C1.86922 18.1619 2.11098 18.4373 2.19771 18.3929C2.43463 18.2712 2.60663 18.0147 2.80431 17.8116L2.71662 17.7318C2.55285 17.9039 2.38861 18.0756 2.21031 18.2622L1.78104 17.9304Z" fill="#FF0037"/>
<path d="M17.5928 19.4134C17.5219 19.9408 17.4929 20.5228 17.344 21.0672C17.2923 21.2572 16.9446 21.4802 16.732 21.4802C15.5696 21.4802 15.3664 21.398 14.9021 20.3225C14.798 20.0816 14.4942 19.9176 14.4357 19.6775C14.2535 18.9293 14.14 18.1627 14.0115 17.401C13.9846 17.241 14.0145 17.0716 14.0051 16.9093C13.9863 16.5656 14.1524 16.3448 14.4413 16.2389C14.7033 16.144 14.9724 16.0716 15.2457 16.0225C15.6272 15.9514 15.9165 16.0426 16.217 16.3828C16.6774 16.9044 17.245 17.325 17.7831 17.7684C18.2192 18.126 18.2248 19.1094 17.766 19.4308C17.7246 19.4576 17.6402 19.4187 17.5928 19.4134ZM14.3922 16.916H14.3226L14.472 18.5073L14.5411 18.5011L14.3922 16.916Z" fill="#FF0037"/>
<path d="M29.1165 2.17418L29.8658 2.45352C29.7153 3.22828 29.237 3.72693 28.5916 3.99658C27.7336 4.35487 26.8438 4.62266 25.9735 4.94679C25.6289 5.07515 25.3536 4.98511 25.1375 4.69608C25.033 4.55756 24.9827 4.36918 24.9395 4.27407C23.3448 4.07368 21.9683 3.42867 20.6527 2.51308C20.6967 2.4582 20.7439 2.40639 20.7939 2.35795C20.8294 2.32655 20.8785 2.31177 20.9753 2.25821C19.9507 2.53524 18.9966 2.81597 18.032 3.04313C16.7473 3.34879 15.4524 3.60966 14.1655 3.89915C13.8018 3.98088 13.4758 4.08384 13.3772 4.59773C13.3349 4.81843 13.0651 5.01097 12.8651 5.16518C12.5292 5.41834 12.1809 5.65139 11.8218 5.8633C11.7271 5.92055 11.5905 5.89608 11.4734 5.90947C11.497 5.77095 11.4822 5.59827 11.552 5.49392C11.6958 5.27968 11.8848 5.101 12.029 4.87845C11.4311 4.97772 10.9388 5.22474 10.6365 5.82266C10.5629 5.96811 10.3882 6.05352 10.2601 6.16525L10.1679 6.08399C10.178 5.9524 10.1599 5.80696 10.2043 5.692C10.3248 5.37572 10.3409 5.09731 10.2584 4.7404C10.2009 4.49153 10.4597 4.15587 10.5781 3.8576L10 3.97719C10.1311 3.24167 10.8242 2.52971 11.3846 2.54587C11.5178 2.5491 11.648 2.70469 11.7652 2.78134C11.8172 2.75318 11.9453 2.61789 12.0502 2.63682C13.1053 2.8289 14.0154 2.37364 14.9478 1.94425C16.3176 1.31354 17.7055 0.729474 19.0922 0.143557C19.7084 -0.116389 20.3067 0.0212038 20.9381 0.20589C21.6782 0.422435 22.4605 0.514315 23.2298 0.553561C24.1766 0.599732 25.0626 0.833361 25.9786 1.26414L25.691 1.40266C25.7397 1.42343 25.7654 1.44652 25.7836 1.44052C27.01 1.0536 28.1032 1.37034 29.111 2.16449L29.1165 2.17418Z" fill="#FF0037"/>
<path d="M31.4275 11.1509C31.6051 11.7556 31.7957 12.3554 31.9992 12.9504C32.5234 14.4884 33.2771 15.8164 34.7263 16.5158C34.9279 16.6141 35.0977 16.7993 35.282 16.9444L35.2312 17.0215L33.8311 16.118C33.9739 17.3597 34.5493 18.339 35.2211 19.2685C35.9739 20.3109 36.7348 21.3466 37.4711 22.4031C37.7961 22.8687 37.7042 23.4133 37.5288 23.9023C37.4078 24.2449 37.182 24.3507 36.9163 24.3794L37.9042 24.3948C38.1139 24.1554 38.2845 23.9596 38.4147 23.8106L39.7696 23.8547C40.1244 24.2515 40.5406 24.1832 40.9192 24.4407C40.9192 24.4407 42.137 24.3966 42.3305 23.9746C42.2715 23.9356 42.2105 23.9002 42.1478 23.8688C41.543 23.6188 40.9224 23.412 40.3405 23.1126C39.7587 22.8132 39.1026 22.5777 38.8083 21.8264C38.457 20.9339 38.0824 20.0521 37.6994 19.1755C37.4268 18.552 37.1949 17.8844 36.8147 17.346C36.2784 16.5863 35.8796 15.7913 35.6215 14.872C35.3743 13.9901 35.1683 13.0672 34.54 12.3741C34.5065 12.3375 34.4715 12.2687 34.4803 12.2255C34.6283 11.4913 34.5235 10.7805 34.365 10.0623C34.2094 9.35676 33.5714 8.85982 33.6485 8.05732C33.6485 8.04056 33.6081 8.0194 33.59 8L33.2351 8.36112C32.9529 8.58159 32.698 8.85629 32.3884 9.01106C31.625 9.39379 30.8387 9.72185 30 10.1002C30.3548 10.3008 30.6738 10.5248 31.0214 10.6637C31.2605 10.7642 31.3569 10.9115 31.4275 11.1509Z" fill="#FF0037"/>
<path d="M34.5668 9.86384L34.1884 10.2132C33.1233 10.8607 31.989 11.3479 30.7618 11.5885C30.5163 11.6367 30.2411 11.5458 29.9827 11.4993C29.9552 11.4946 29.9487 11.3714 29.9466 11.362C29.072 11.286 28.1686 11.1257 27.2716 11.1538C26.388 11.1815 25.5117 11.4098 24.6289 11.5296C24.4191 11.5582 24.1611 11.5723 23.9887 11.4797C23.44 11.1811 22.9219 10.8296 22.3547 10.5225C22.5009 10.6667 22.6656 10.7972 22.7908 10.9576C23.3927 11.731 24.2153 11.8308 25.1316 11.8159C26.2236 11.7978 27.3156 11.8441 28.4021 11.9545C29.1838 12.0343 29.7397 12.5014 30.0012 13.2769C30.3852 14.4171 29.6572 15.6657 28.4532 15.8632C27.9145 15.9515 27.3649 15.9754 26.7372 16.0368L27.0592 16.2702C26.1563 16.6515 25.6072 17.5435 24.6212 17.7141C23.7457 17.8656 22.8583 17.9577 21.985 18.1121C21.2923 18.2341 20.609 18.4107 19.921 18.5639C19.657 18.6236 19.3952 18.6918 19.0348 18.784L19.5839 17.6493L19.4936 17.5989C19.3156 17.933 19.1251 18.261 18.9639 18.6027C18.8289 18.8885 18.6943 19.1308 18.3133 19.1304C18.2273 19.1304 18.1546 19.3244 18.0553 19.4029C17.5643 19.7907 17.0664 20.1708 16.5714 20.5508C16.5714 20.5508 16.5413 20.5214 16.5465 20.5052C16.8582 19.5761 16.537 18.9183 15.7295 18.3864C15.2682 18.0823 14.8799 17.6612 14.4959 17.256C14.3824 17.1361 14.3132 16.8593 14.3764 16.7257C14.428 16.6178 14.7087 16.5777 14.888 16.576C15.7343 16.5692 16.58 16.5858 17.425 16.5406L15.3769 16.4459L15.3873 16.3883L19.5435 14.7776C17.9956 14.8168 17.4852 14.0682 16.6923 13.0828L18.45 12.7415L18.4333 12.6234L15.4879 12.9109C15.2866 12.9305 15.0858 12.9535 14.8859 12.9714C14.2229 13.0329 14.2022 13.0184 14.0612 12.3286C13.8385 13.7248 12.6422 13.8728 11.7001 14.3203C11.4679 14.4303 11.2125 14.4965 10.9623 14.5639C10.2679 14.7515 9.62631 15.0173 9.17483 15.6461C9.28548 15.1851 9.39613 14.7238 9.50678 14.2623L9.41175 14.2392C9.27201 14.7166 9.12108 15.1918 8.99467 15.6725C8.71475 16.739 7.98635 17.497 7.18873 18.1735C6.98835 18.3442 6.54375 18.2431 6.21051 18.2401C5.90049 18.2371 5.58875 18.1607 5.28217 18.1821C4.03177 18.2674 2.90908 17.1502 3.00583 15.8406C3.16105 16.0283 3.29736 16.1929 3.38722 16.3022C3.33477 15.8756 3.22598 15.4106 3.24533 14.9516C3.2535 14.7481 3.48311 14.4363 3.67531 14.3757C5.61025 13.7683 7.24419 12.6579 8.81794 11.3552C8.82955 11.4699 8.84202 11.5433 8.84245 11.6166C8.84288 11.69 8.83041 11.7523 8.9134 11.8406C8.97231 11.5778 9.06862 11.3172 9.08238 11.0523C9.10775 10.5639 9.33392 10.2294 9.78154 10.0652C10.3921 9.84166 10.8462 9.43812 11.1966 8.91343C11.6042 8.30428 12.1903 8.03084 12.9131 7.94638L13.2107 8.77308C13.2563 8.70654 13.2803 8.68777 13.2765 8.6754C12.9957 7.84955 13.009 7.82865 13.8849 7.7412C14.5299 7.67636 15.1783 7.55649 15.8241 7.56161C16.7632 7.56843 17.3063 7.00706 17.7978 6.35269C18.0755 5.98285 18.4225 5.95384 18.7007 6.32752C18.7747 6.42734 18.8555 6.52161 18.8947 6.57024C21.0816 4.82683 23.4228 4.19166 26.1089 5.18686L25.7147 4.71677C26.2109 4.56832 26.6546 4.45571 27.0837 4.30171C27.4617 4.16606 27.8491 4.02615 28.1866 3.81584C28.9696 3.32784 29.4336 2.66409 29.2276 1.61727L30.2252 2.66622C30.7481 2.33818 31.1282 2.54849 31.1626 3.20243C30.6371 3.263 30.5107 3.64393 30.5176 4.08885C30.5228 4.47277 30.5146 4.87418 30.6182 5.23762C30.8151 5.92697 30.5971 6.49218 30.1637 6.98232C29.8197 7.37349 29.3962 7.6994 28.9929 8.06796C29.9616 7.67679 30.5073 6.93028 30.8418 6.00333C30.8848 5.88474 30.8177 5.72648 30.7988 5.58699C30.7403 5.13396 30.6393 4.68137 30.632 4.22749C30.6217 3.54497 30.9515 3.32059 31.541 3.62815C31.8239 3.77532 31.943 3.6883 32.1055 3.52108C32.2001 3.84783 32.2947 4.17459 32.3601 4.4011L32.4861 3.12436L32.112 3.53046L31.8084 3.5599C31.5616 3.07787 31.8587 2.75196 32.1567 2.4508C32.4835 2.12362 32.7191 1.77169 32.7475 1.29648C32.756 1.24363 32.7757 1.19317 32.8054 1.14845C32.835 1.10374 32.8739 1.06579 32.9195 1.03713C33.3065 0.823837 33.7046 0.628891 34.0985 0.4284C34.0719 0.410484 34.0026 0.365267 33.9016 0.300427C35.2775 -0.268625 36.4927 -0.00542653 37.6511 0.888251C37.6511 0.739802 37.6511 0.657046 37.6511 0.552535C38.3184 1.06699 38.6985 1.63135 38.8511 2.33179L38.5549 2.20381L38.6172 2.83429L38.7032 2.49047L38.8352 2.45464L39.3065 3.92078C39.0618 3.91694 38.8408 3.85722 38.6809 3.92974C38.5686 3.98093 38.5394 4.21213 38.4659 4.37423C38.2818 4.34906 38.2818 4.34906 37.9383 3.91396C37.9262 4.17459 37.992 4.55937 37.8764 4.88015C37.6184 5.59253 37.4855 5.63732 36.6978 5.45262C36.4015 5.38308 36.1865 5.38052 36.1289 5.63818L37.1252 5.58485C36.8904 6.2324 36.5159 6.63338 35.9917 6.92814C35.493 7.20925 35.017 7.53175 34.5392 7.84827C34.2486 8.04065 33.9773 8.0735 33.6526 7.90714C32.8636 7.50402 32.4676 6.85477 32.3498 6.00546C32.3235 5.81435 32.2672 5.62709 32.2251 5.43811L32.121 5.45688C32.207 5.9773 32.293 6.4973 32.385 7.04971L31.2382 6.88378C31.7194 7.16617 32.3562 7.112 32.6976 7.71304L31.2512 7.57142C31.2477 7.59702 31.2438 7.62261 31.2404 7.6482C31.6902 7.73352 32.1434 7.80987 32.5893 7.90415C33.1482 8.02231 33.7287 8.09483 34.2529 8.30428C34.5762 8.43225 34.8325 8.76157 35.0699 9.04055C35.1313 9.11221 35.0505 9.35834 34.9692 9.48205C34.8729 9.63306 34.7057 9.73885 34.5668 9.86384ZM21.0596 8.99533L21.6827 9.68425C21.5692 9.41935 21.4277 9.19113 21.7037 8.92111C21.7627 8.86352 21.6375 8.6225 21.5971 8.46339L21.4926 8.48984C21.5227 8.61781 21.5533 8.74578 21.5898 8.9002L21.0596 8.99533ZM21.355 13.8498L21.4015 13.9743L23.7913 13.3268C23.7866 13.3042 23.7814 13.2841 23.7763 13.2594L21.355 13.8498ZM20.7002 7.03692L20.5841 7.16148L21.4655 7.844L21.5339 7.76423L20.7002 7.03692ZM25.3603 9.45518L25.3294 9.53111L26.5118 10.066L26.566 9.93593L25.3603 9.45518Z" fill="#FF0037"/>
</svg>
