<svg width="50" height="41" viewBox="0 0 50 41" fill="none" xmlns="http://www.w3.org/2000/svg">
<path d="M37.0472 9.86384L36.6688 10.2132C35.6038 10.8607 34.4695 11.3479 33.2423 11.5885C32.9968 11.6367 32.7216 11.5458 32.4632 11.4993C32.4356 11.4946 32.4292 11.3714 32.427 11.362C31.5524 11.286 30.649 11.1257 29.7521 11.1538C28.8685 11.1815 27.9922 11.4098 27.1094 11.5296C26.8996 11.5582 26.6416 11.5723 26.4692 11.4797C25.9205 11.1811 25.4024 10.8296 24.8352 10.5225C24.9814 10.6667 25.1461 10.7972 25.2712 10.9576C25.8732 11.731 26.6958 11.8308 27.6121 11.8159C28.704 11.7978 29.7961 11.8441 30.8825 11.9545C31.6642 12.0343 32.2202 12.5014 32.4816 13.2769C32.8656 14.4171 32.1377 15.6657 30.9337 15.8632C30.3949 15.9515 29.8454 15.9754 29.2176 16.0368L29.5397 16.2702C28.6367 16.6515 28.0876 17.5435 27.1017 17.7141C26.2262 17.8656 25.3387 17.9577 24.4654 18.1121C23.7727 18.2341 23.0895 18.4107 22.4015 18.5639C22.1375 18.6236 21.8756 18.6918 21.5153 18.784L22.0644 17.6493L21.9741 17.5989C21.7961 17.933 21.6056 18.261 21.4444 18.6027C21.3093 18.8885 21.1747 19.1308 20.7938 19.1304C20.7078 19.1304 20.6351 19.3244 20.5358 19.4029C20.0447 19.7907 19.5468 20.1708 19.0519 20.5508C19.0519 20.5508 19.0218 20.5214 19.027 20.5052C19.3387 19.5761 19.0175 18.9183 18.21 18.3864C17.7486 18.0823 17.3603 17.6612 16.9764 17.256C16.8629 17.1361 16.7936 16.8593 16.8568 16.7257C16.9084 16.6178 17.1892 16.5777 17.3685 16.576C18.2147 16.5692 19.0605 16.5858 19.9054 16.5406L17.8574 16.4459L17.8677 16.3883L22.024 14.7776C20.476 14.8168 19.9656 14.0682 19.1727 13.0828L20.9305 12.7415L20.9137 12.6234L17.9683 12.9109C17.7671 12.9305 17.5663 12.9535 17.3664 12.9714C16.7033 13.0329 16.6827 13.0184 16.5417 12.3286C16.3189 13.7248 15.1227 13.8728 14.1806 14.3203C13.9484 14.4303 13.693 14.4965 13.4428 14.5639C12.7483 14.7515 12.1068 15.0173 11.6553 15.6461C11.7659 15.1851 11.8766 14.7238 11.9872 14.2623L11.8922 14.2392C11.7525 14.7166 11.6016 15.1918 11.4751 15.6725C11.1952 16.739 10.4668 17.497 9.66919 18.1735C9.46882 18.3442 9.02422 18.2431 8.69098 18.2401C8.38096 18.2371 8.06922 18.1607 7.76264 18.1821C6.51224 18.2674 5.38955 17.1502 5.4863 15.8406C5.64152 16.0283 5.77783 16.1929 5.86769 16.3022C5.81523 15.8756 5.70645 15.4106 5.7258 14.9516C5.73397 14.7481 5.96358 14.4363 6.15578 14.3757C8.09072 13.7683 9.72466 12.6579 11.2984 11.3552C11.31 11.4699 11.3225 11.5433 11.3229 11.6166C11.3233 11.69 11.3109 11.7523 11.3939 11.8406C11.4528 11.5778 11.5491 11.3172 11.5628 11.0523C11.5882 10.5639 11.8144 10.2294 12.262 10.0652C12.8726 9.84166 13.3267 9.43812 13.6771 8.91343C14.0847 8.30428 14.6708 8.03084 15.3936 7.94638L15.6911 8.77308C15.7367 8.70654 15.7608 8.68777 15.7569 8.6754C15.4762 7.84955 15.4895 7.82865 16.3654 7.7412C17.0103 7.67636 17.6588 7.55649 18.3046 7.56161C19.2437 7.56843 19.7868 7.00706 20.2782 6.35269C20.556 5.98285 20.903 5.95384 21.1812 6.32752C21.2552 6.42734 21.336 6.52161 21.3751 6.57024C23.562 4.82683 25.9033 4.19166 28.5894 5.18686L28.1951 4.71677C28.6913 4.56832 29.1351 4.45571 29.5642 4.30171C29.9422 4.16606 30.3296 4.02615 30.6671 3.81584C31.4501 3.32784 31.9141 2.66409 31.7081 1.61727L32.7057 2.66622C33.2285 2.33818 33.6086 2.54849 33.643 3.20243C33.1176 3.263 32.9912 3.64393 32.9981 4.08885C33.0032 4.47277 32.9951 4.87418 33.0987 5.23762C33.2956 5.92697 33.0776 6.49218 32.6442 6.98232C32.3002 7.37349 31.8767 7.6994 31.4733 8.06796C32.4421 7.67679 32.9877 6.93028 33.3223 6.00333C33.3653 5.88474 33.2982 5.72648 33.2793 5.58699C33.2208 5.13396 33.1197 4.68137 33.1124 4.22749C33.1021 3.54497 33.4319 3.32059 34.0214 3.62815C34.3044 3.77532 34.4235 3.6883 34.586 3.52108C34.6806 3.84783 34.7752 4.17459 34.8405 4.4011L34.9665 3.12436L34.5925 3.53046L34.2889 3.5599C34.0421 3.07787 34.3392 2.75196 34.6372 2.4508C34.964 2.12362 35.1996 1.77169 35.228 1.29648C35.2365 1.24363 35.2562 1.19317 35.2859 1.14845C35.3155 1.10374 35.3544 1.06579 35.4 1.03713C35.7869 0.823837 36.1851 0.628891 36.579 0.4284C36.5523 0.410484 36.4831 0.365267 36.3821 0.300427C37.758 -0.268625 38.9731 -0.00542653 40.1315 0.888251C40.1315 0.739802 40.1315 0.657046 40.1315 0.552535C40.7989 1.06699 41.179 1.63135 41.3316 2.33179L41.0354 2.20381L41.0977 2.83429L41.1837 2.49047L41.3157 2.45464L41.787 3.92078C41.5423 3.91694 41.3213 3.85722 41.1613 3.92974C41.0491 3.98093 41.0199 4.21213 40.9463 4.37423C40.7623 4.34906 40.7623 4.34906 40.4188 3.91396C40.4067 4.17459 40.4725 4.55937 40.3568 4.88015C40.0988 5.59253 39.966 5.63732 39.1782 5.45262C38.882 5.38308 38.667 5.38052 38.6094 5.63818L39.6057 5.58485C39.3709 6.2324 38.9964 6.63338 38.4722 6.92814C37.9734 7.20925 37.4974 7.53175 37.0197 7.84827C36.729 8.04065 36.4577 8.0735 36.1331 7.90714C35.3441 7.50402 34.948 6.85477 34.8302 6.00546C34.804 5.81435 34.7477 5.62709 34.7055 5.43811L34.6015 5.45688C34.6875 5.9773 34.7735 6.4973 34.8655 7.04971L33.7187 6.88378C34.1999 7.16617 34.8367 7.112 35.1781 7.71304L33.7316 7.57142C33.7282 7.59702 33.7243 7.62261 33.7209 7.6482C34.1706 7.73352 34.6238 7.80987 35.0697 7.90415C35.6287 8.02231 36.2092 8.09483 36.7333 8.30428C37.0567 8.43225 37.313 8.76157 37.5503 9.04055C37.6118 9.11221 37.531 9.35834 37.4497 9.48205C37.3534 9.63306 37.1861 9.73885 37.0472 9.86384ZM23.5401 8.99533L24.1631 9.68425C24.0496 9.41935 23.9082 9.19113 24.1842 8.92111C24.2431 8.86352 24.118 8.6225 24.0776 8.46339L23.9731 8.48984C24.0032 8.61781 24.0337 8.74578 24.0703 8.9002L23.5401 8.99533ZM23.8355 13.8498L23.8819 13.9743L26.2718 13.3268C26.2671 13.3042 26.2619 13.2841 26.2567 13.2594L23.8355 13.8498ZM23.1806 7.03692L23.0645 7.16148L23.946 7.844L24.0144 7.76423L23.1806 7.03692ZM27.8408 9.45518L27.8099 9.53111L28.9923 10.066L29.0465 9.93593L27.8408 9.45518Z" fill="#FF0037"/>
<path d="M17.9785 19.8543C17.9077 20.3817 17.8787 20.9637 17.7297 21.5081C17.6781 21.6981 17.3303 21.9211 17.1178 21.9211C15.9553 21.9211 15.7522 21.8389 15.2879 20.7634C15.1838 20.5225 14.8799 20.3585 14.8215 20.1184C14.6392 19.3702 14.5257 18.6036 14.3973 17.8419C14.3704 17.6819 14.4003 17.5125 14.3909 17.3503C14.3721 17.0065 14.5381 16.7857 14.827 16.6798C15.0891 16.5849 15.3581 16.5125 15.6314 16.4634C16.0129 16.3924 16.3023 16.4835 16.6027 16.8237C17.0632 17.3453 17.6307 17.7659 18.1689 18.2094C18.605 18.567 18.6105 19.5503 18.1518 19.8717C18.1104 19.8985 18.0259 19.8596 17.9785 19.8543ZM14.7779 17.357H14.7084L14.8577 18.9482L14.9269 18.942L14.7779 17.357Z" fill="#FF0037"/>
<path d="M30.762 2.17418L31.5113 2.45352C31.3608 3.22828 30.8825 3.72693 30.2372 3.99658C29.3791 4.35487 28.4893 4.62266 27.619 4.94679C27.2744 5.07515 26.9991 4.98511 26.783 4.69608C26.6785 4.55756 26.6282 4.36918 26.585 4.27407C24.9903 4.07368 23.6138 3.42867 22.2982 2.51308C22.3423 2.4582 22.3894 2.40639 22.4394 2.35795C22.475 2.32655 22.524 2.31177 22.6209 2.25821C21.5962 2.53524 20.6421 2.81597 19.6775 3.04313C18.3928 3.34879 17.0979 3.60966 15.811 3.89915C15.4473 3.98088 15.1213 4.08384 15.0227 4.59773C14.9804 4.81843 14.7106 5.01097 14.5106 5.16518C14.1747 5.41834 13.8264 5.65139 13.4673 5.8633C13.3726 5.92055 13.236 5.89608 13.1189 5.90947C13.1425 5.77095 13.1277 5.59827 13.1975 5.49392C13.3413 5.27968 13.5303 5.101 13.6745 4.87845C13.0766 4.97772 12.5843 5.22474 12.282 5.82266C12.2084 5.96811 12.0337 6.05352 11.9056 6.16525L11.8134 6.08399C11.8235 5.9524 11.8054 5.80696 11.8498 5.692C11.9703 5.37572 11.9864 5.09731 11.9039 4.7404C11.8464 4.49153 12.1052 4.15587 12.2236 3.8576L11.6455 3.97719C11.7766 3.24167 12.4697 2.52971 13.0301 2.54587C13.1633 2.5491 13.2935 2.70469 13.4107 2.78134C13.4627 2.75318 13.5908 2.61789 13.6957 2.63682C14.7508 2.8289 15.6609 2.37364 16.5934 1.94425C17.9631 1.31354 19.351 0.729474 20.7377 0.143557C21.3539 -0.116389 21.9523 0.0212038 22.5836 0.20589C23.3237 0.422435 24.106 0.514315 24.8753 0.553561C25.8221 0.599732 26.7081 0.833361 27.6241 1.26414L27.3365 1.40266C27.3852 1.42343 27.411 1.44652 27.4291 1.44052C28.6555 1.0536 29.7487 1.37034 30.7565 2.16449L30.762 2.17418Z" fill="#FF0037"/>
<path d="M34.9939 12.7417C35.1715 13.3464 35.3621 13.9462 35.5656 14.5412C36.0898 16.0792 36.8435 17.4073 38.2927 18.1066C38.4943 18.2049 38.6641 18.3901 38.8484 18.5352L38.7976 18.6123L37.3975 17.7089C37.5403 18.9505 38.1157 19.9298 38.7875 20.8593C39.5403 21.9017 40.3012 22.9375 41.0375 23.9939C41.3625 24.4596 41.2706 25.0041 41.0952 25.4931C40.9742 25.8357 40.7484 25.9415 40.4827 25.9702L41.4706 25.9856C41.6803 25.7462 41.8509 25.5504 41.9811 25.4014L43.336 25.4455C43.6908 25.8423 44.107 25.774 44.4856 26.0315C44.4856 26.0315 45.7034 25.9874 45.8969 25.5654C45.8379 25.5264 45.7769 25.4911 45.7142 25.4596C45.1094 25.2096 44.4888 25.0028 43.907 24.7034C43.3251 24.404 42.669 24.1686 42.3747 23.4172C42.0234 22.5247 41.6488 21.6429 41.2658 20.7663C40.9932 20.1428 40.7613 19.4752 40.3811 18.9369C39.8448 18.1771 39.446 17.3821 39.1879 16.4628C38.9407 15.5809 38.7347 14.658 38.1064 13.9649C38.073 13.9283 38.0379 13.8595 38.0467 13.8163C38.1947 13.0821 38.0899 12.3714 37.9314 11.6531C37.7758 10.9476 37.1379 10.4506 37.2149 9.64814C37.2149 9.63138 37.1745 9.61022 37.1564 9.59082L36.8016 9.95194C36.5193 10.1724 36.2644 10.4471 35.9548 10.6019C35.1914 10.9846 34.4051 11.3127 33.5664 11.691C33.9213 11.8916 34.2402 12.1156 34.5878 12.2545C34.8269 12.355 34.9233 12.5023 34.9939 12.7417Z" fill="#FF0037"/>
<path d="M2.5954 18.4571L2.05518 18.0869C2.14965 17.8728 2.21894 17.6139 2.36187 17.4103C2.9738 16.5372 3.68214 15.7809 4.82218 15.7559C5.01598 15.7519 5.26308 15.9056 5.40358 16.0623C5.65117 16.3392 5.83625 16.6759 6.07268 17.0247L5.46415 17.1245C6.29071 16.9538 6.81834 17.6234 7.5354 17.8694L6.27569 18.4072L6.65797 18.6162L5.20445 19.8526L5.21027 19.866C5.02083 19.8511 4.82848 19.8526 4.64194 19.8161C4.06054 19.7094 3.48155 19.5896 2.9016 19.4749C2.79986 19.1353 2.69779 18.796 2.5954 18.4571ZM3.83621 17.6862L3.75385 17.7885C3.92439 17.9178 4.16616 18.1932 4.25289 18.1487C4.48981 18.027 4.66181 17.7706 4.85949 17.5675L4.77179 17.4877C4.60803 17.6598 4.44378 17.8314 4.26548 18.018L3.83621 17.6862Z" fill="#FF0037"/>
<path d="M2.98502 40.4168H0V25.6596H2.98502V26.9067C3.45041 26.3046 4.47753 25.3462 6.4345 25.3462C7.36528 25.3462 8.85453 25.5468 10.0552 26.6391C10.838 27.3524 11.6455 28.5563 11.6455 30.4735C11.6455 32.6578 10.5937 33.8397 9.98217 34.3748C9.17472 35.066 7.95121 35.6233 6.38563 35.6233C5.65171 35.6233 4.1592 35.5117 2.98502 34.0627V40.4168ZM3.69428 28.4015C3.03389 28.9142 2.69136 29.583 2.69136 30.4748C2.69136 31.3666 3.08275 32.1019 3.66868 32.57C4.06007 32.8821 4.69626 33.2167 5.62332 33.2167C6.60064 33.2167 7.23823 32.8601 7.62962 32.5255C8.26581 31.9903 8.5604 31.188 8.5604 30.4748C8.5604 29.7615 8.24208 28.9588 7.65476 28.4461C7.11676 28.0004 6.33398 27.7548 5.62425 27.7548C4.84659 27.7548 4.23273 27.9554 3.69428 28.4015Z" fill="black"/>
<path d="M14.7186 25.3462V30.6026C14.7186 31.096 14.7577 31.7613 15.2276 32.2331C15.5209 32.5123 15.9908 32.7053 16.4409 32.7053C16.8911 32.7053 17.3609 32.5123 17.6543 32.2331C18.1242 31.7613 18.1633 31.096 18.1633 30.6026V25.3462H20.5509V31.0319C20.5509 31.8686 20.4534 32.9841 19.5136 33.8852C18.7318 34.6362 17.4782 34.9366 16.4409 34.9366C15.4037 34.9366 14.1508 34.6362 13.3682 33.8852C12.4285 32.9841 12.3306 31.8686 12.3306 31.0319V25.3462H14.7186Z" fill="black"/>
<path d="M22.6068 25.6466H25.3349V26.6978C26.3634 25.4535 27.6377 25.3462 28.2192 25.3462C30.254 25.3462 31.0366 26.5705 31.2816 27.041C31.7495 26.3114 32.7129 25.3462 34.3896 25.3462C35.8876 25.3462 36.6256 26.011 37.0058 26.4832C37.6319 27.2769 37.6766 28.0707 37.6766 29.1003V34.9362H34.9485V29.8729C34.9485 28.7787 34.7026 28.2853 34.5014 28.0495C34.1437 27.6201 33.6507 27.5773 33.3836 27.5773C32.6457 27.5773 32.1761 27.8993 31.8852 28.3935C31.5274 28.951 31.5053 29.7019 31.5053 30.1953V34.9366H28.7772V29.8729C28.7772 28.7787 28.5314 28.2853 28.3302 28.0495C27.9725 27.6201 27.4795 27.5773 27.2124 27.5773C26.4744 27.5773 26.0048 27.8993 25.7139 28.3935C25.3562 28.951 25.3341 29.7019 25.3341 30.1953V34.9366H22.606L22.6068 25.6466Z" fill="black"/>
<path d="M46.5132 25.6375H49.3223V34.6453H46.5132V33.4803C45.5 34.791 44.1644 34.9366 43.4504 34.9366C40.3882 34.9366 38.3618 32.7731 38.3618 30.1311C38.3618 27.4682 40.3649 25.3462 43.3116 25.3462C44.0716 25.3462 45.5683 25.4709 46.5123 26.8025L46.5132 25.6375ZM41.2629 30.1311C41.2629 31.5665 42.4145 32.69 44.026 32.69C45.6375 32.69 46.7896 31.5665 46.7896 30.1311C46.7896 28.6957 45.638 27.5928 44.026 27.5928C42.4141 27.5928 41.2629 28.6954 41.2629 30.1311Z" fill="black"/>
</svg>
